<mxfile host="app.diagrams.net" modified="2024-02-16T21:15:52.888Z" agent="Mozilla/5.0 (Linux; Android 10; K) AppleWebKit/537.36 (KHTML, like Gecko) Chrome/121.0.0.0 Mobile Safari/537.36" version="23.1.5" etag="X2Jak2yIajMnvNuAG1yx" type="github">
  <diagram name="Page-1" id="0ItZXvUpsL4pxIwzPwWh">
    <mxGraphModel>
      <root>
        <mxCell id="0" />
        <mxCell id="1" parent="0" />
      </root>
    </mxGraphModel>
  </diagram>
</mxfile>
